<svg enable-background="new 0 0 194.9 194.9" viewBox="0 0 194.9 194.9" xml:space="preserve" xmlns="http://www.w3.org/2000/svg" xmlns:xlink="http://www.w3.org/1999/xlink"><circle cx="97.5" cy="97.5" fill="#f00" r="83"/><path d="m45.4 130.7-11.5 8-2.5-3.6 11.5-8zm5 7.3-11.5 8-2.5-3.6 11.5-8zm-5.5 1.4-2.7 1.9-5.2-7.5 2.7-1.9z" fill="#fff"/><path d="m41.9 149.5 12.8-7.4 3.9 3.4-5.7 13.7-3.4-3 3.9-7.9 1.1-2.1-1.9 1.3-7.4 4.8zm4.4 0 1.9-2.1 6 5.2-1.9 2.1z" fill="#fff"/><path d="m74.9 155.3-6.5 12.5-4.2-2.2-.2-7.9.1-2.1-1.2 2.5-2.8 5.4-3.4-1.7 6.5-12.5 4.2 2.2.2 7.9-.1 2.1 1.2-2.5 2.8-5.4z" fill="#fff"/><path d="m83.6 157.6c2.1.5 3.6 1.5 4.5 2.9.8 1.4 1 3.3.5 5.4-.5 2.2-1.5 3.7-2.8 4.7-1.4.9-3.2 1.2-5.3.7l-6.3-1.5 3.2-13.7zm-3 10.5c1 .2 1.8.1 2.3-.4s1-1.4 1.3-2.7.3-2.3.1-3c-.3-.7-.9-1.2-1.9-1.4l-1.5-.4-1.7 7.5z" fill="#fff"/><path d="m105.1 169c-.2 1-.7 1.9-1.3 2.5-.6.7-1.3 1.1-2.2 1.4s-1.8.5-2.8.5c-1.4 0-2.7-.3-3.8-.8-1.1-.6-1.9-1.4-2.5-2.5s-.9-2.4-.9-3.9.3-2.8.8-3.9c.6-1.1 1.4-1.9 2.4-2.5s2.3-.9 3.7-.9c1 0 2 .1 2.8.4s1.6.7 2.2 1.3 1 1.4 1.2 2.3l-3.7 1.5c-.2-.9-.4-1.5-.8-1.8s-.9-.4-1.5-.4-1.1.2-1.5.5-.7.7-.9 1.3-.3 1.3-.3 2.2.1 1.6.3 2.2.5 1 .9 1.3.9.4 1.6.4c.6 0 1.1-.2 1.5-.5s.7-.9.8-1.6z" fill="#fff"/><path d="m113.5 157.1c1.7-.4 3.1-.4 4.2.2s1.8 1.5 2.2 2.8c.4 1.4.2 2.7-.5 3.6-.7 1-1.9 1.7-3.6 2.1l-.4.3-2.5.6 1.2 4.7-4.1 1-3.4-13.6zm.9 6.2c.6-.1 1-.4 1.2-.7s.3-.7.2-1.2-.4-.9-.7-1c-.4-.2-.8-.2-1.4 0l-2.2.5.7 2.9zm2.7.3 6 5.6-4.6 1.1-4.8-5.1z" fill="#fff"/><path d="m126.1 168-2.3-14.6 4.6-2.4 10.7 10.2-4 2.1-6-6.5-1.6-1.8.5 2.3 1.9 8.6zm1.7-4.1-1.3-2.5 7-3.7 1.3 2.5z" fill="#fff"/><path d="m144.2 143-5.3 4.5 1.6 1.9 4.2-3.6 2.1 2.5-4.2 3.6 3.3 3.9-3.3 2.8-9.1-10.7 8.6-7.3z" fill="#fff"/><path d="m151.9 127.4 2.7 1.9-2.6 3.7 8.8 6.2-2.5 3.6-8.8-6.2-2.6 3.7-2.7-1.9z" fill="#fff"/><path d="m52.2 106.1c-3.4 0-6.5-.7-9.1-2.2-2.7-1.5-4.8-3.7-6.3-6.7s-2.3-6.6-2.3-11c0-4.2.8-7.9 2.4-10.9s3.9-5.3 6.9-6.9 6.5-2.4 10.6-2.4c4.6 0 8.3.8 11.1 2.5 2.8 1.6 5 4.3 6.5 7.8l-11.2 4.2c-.4-1.9-1.1-3.3-2.2-4.1s-2.5-1.2-4.1-1.2c-1.7 0-3.1.4-4.2 1.2s-2 2-2.5 3.6-.8 3.6-.8 6c0 2.6.3 4.7.9 6.4.6 1.6 1.5 2.9 2.8 3.6 1.3.8 2.8 1.1 4.7 1.1.9 0 1.8-.1 2.6-.3s1.5-.5 2.1-1c.6-.4 1.1-1 1.4-1.6s.5-1.4.5-2.3v-.3h-8v-7.6h17.8v21.5h-8.1l-.9-9.8 1.9 1.9c-.7 2.7-2.1 4.9-4.2 6.3-2.2 1.4-4.9 2.2-8.3 2.2z" fill="#fff"/><path d="m93.3 106.1c-2.7 0-5.2-.4-7.3-1.2s-3.8-2-5-3.6-1.8-3.6-1.8-6.1c0-1 .2-2.1.5-3.2.3-1.2.9-2.3 1.8-3.4s2.1-2 3.6-2.8 3.5-1.3 6-1.5l1.6-.3c1.7-1.1 3-2.1 3.9-2.9s1.5-1.6 1.9-2.3c.3-.7.5-1.5.5-2.4s-.3-1.6-.8-2.1-1.2-.8-2.1-.8-1.7.3-2.3.9-.9 1.4-.9 2.5c0 .6.1 1.1.4 1.7.2.6.7 1.3 1.3 2.1s1.5 1.8 2.7 3.1 2.7 2.9 4.7 4.9c1.8 1.9 3.4 3.5 4.7 4.8s2.4 2.3 3.4 3 2 1.2 2.9 1.4c1 .2 2.1.2 3.3 0l-.8 8.3c-1.8 0-3.3-.1-4.7-.4-1.4-.2-2.7-.7-4-1.4s-2.8-1.8-4.4-3.2-3.6-3.2-6-5.6c-2.9-2.9-5.3-5.2-7.1-7.1s-3.2-3.5-4.1-4.8-1.6-2.6-1.9-3.7-.5-2.3-.5-3.6c0-1.7.5-3.3 1.4-4.9s2.3-2.9 4.2-3.9 4.3-1.5 7.3-1.5 5.4.5 7.2 1.4 3.1 2.1 3.9 3.6 1.2 3 1.2 4.6c0 1.9-.5 3.6-1.4 5.2s-2.4 2.9-4.3 4-4.3 1.9-7.2 2.5l-1.8 1.1c-1.1.7-2 1.4-2.6 2s-1 1.2-1.3 1.8c-.2.6-.4 1.4-.4 2.2s.2 1.6.7 2.2 1.1 1.1 2 1.4 1.9.5 3.1.5c1.7 0 3.2-.3 4.5-.8s2.6-1.2 3.9-1.9l.9-1.4c.6-1.1 1.1-2.4 1.6-3.7s.6-3 .6-4.9l7.7.1c-.1 2.5-.5 4.8-1.4 6.9-.8 2.1-2.1 3.9-3.7 5.3l-2.1 1.5c-1.2 2-3 3.5-5.3 4.7-2.1 1.1-4.9 1.7-8.2 1.7z" fill="#fff"/><path d="m139.9 106.1c-3.4 0-6.5-.7-9.1-2.2-2.7-1.5-4.8-3.7-6.3-6.7s-2.3-6.6-2.3-11c0-4.2.8-7.9 2.4-10.9s3.9-5.3 6.9-6.9 6.5-2.4 10.6-2.4c4.6 0 8.3.8 11.1 2.5 2.8 1.6 5 4.3 6.5 7.8l-11.2 4.2c-.4-1.9-1.1-3.3-2.2-4.1s-2.5-1.2-4.1-1.2c-1.7 0-3.1.4-4.2 1.2s-2 2-2.5 3.6c-.6 1.6-.8 3.6-.8 6 0 2.6.3 4.7.9 6.4.6 1.6 1.5 2.9 2.8 3.6 1.3.8 2.8 1.1 4.7 1.1.9 0 1.8-.1 2.6-.3s1.5-.5 2.1-1c.6-.4 1.1-1 1.4-1.6s.5-1.4.5-2.3v-.3h-7.7v-7.6h17.8v21.5h-8.1l-.9-9.8 1.9 1.9c-.7 2.7-2.1 4.9-4.2 6.3-2.4 1.4-5.1 2.2-8.6 2.2z" fill="#fff"/><circle cx="592.1" cy="99.6" fill="#f00" r="83"/><path id="a" d="m668 100c.2-41.9-33.5-76-75.4-76.3-41.9-.2-76 33.5-76.3 75.4-.2 41.9 33.5 76 75.4 76.3 41.9.2 76-33.5 76.3-75.4z" fill="none"/><text><textPath startOffset="6343.6621%" xlink:href="#a"><tspan fill="#fff" font-family="WorkSans-ExtraBold" font-size="21.2605" letter-spacing="50">HANDCRAFT</tspan></textPath>
</text><text transform="translate(526.9971 107.6002)"><tspan fill="#fff" font-family="WorkSans-ExtraBold" font-size="58.8717" x="0" y="0">G</tspan><tspan fill="#fff" font-family="WorkSans-ExtraBold" font-size="58.8717" letter-spacing="-12" x="42.5" y="0"></tspan><tspan fill="#fff" font-family="WorkSans-ExtraBold" font-size="58.8717" x="45.9" y="0">&amp;</tspan><tspan fill="#fff" font-family="WorkSans-ExtraBold" font-size="58.8717" letter-spacing="-12" x="84.4" y="0"></tspan><tspan fill="#fff" font-family="WorkSans-ExtraBold" font-size="58.8717" x="87.8" y="0">G</tspan></text></svg>