<?xml version="1.0" encoding="utf-8"?>
<!-- Generator: Adobe Illustrator 24.2.3, SVG Export Plug-In . SVG Version: 6.00 Build 0)  -->
<svg version="1.1" id="Layer_1" xmlns="http://www.w3.org/2000/svg" xmlns:xlink="http://www.w3.org/1999/xlink" x="0px" y="0px"
	 viewBox="0 0 194.9 194.9" style="enable-background:new 0 0 194.9 194.9;" xml:space="preserve">
<style type="text/css">
	.st0{fill:#FF0000;}
	.st1{fill:#FFFFFF;}
</style>
<g>
	<circle class="st0" cx="97.5" cy="97.5" r="83"/>
	<g>
		<path class="st1" d="M45.4,130.7l-11.5,8l-2.5-3.6l11.5-8L45.4,130.7z M50.4,138l-11.5,8l-2.5-3.6l11.5-8L50.4,138z M44.9,139.4
			l-2.7,1.9l-5.2-7.5l2.7-1.9L44.9,139.4z"/>
		<path class="st1" d="M41.9,149.5l12.8-7.4l3.9,3.4l-5.7,13.7l-3.4-3l3.9-7.9l1.1-2.1l0,0l-1.9,1.3l-7.4,4.8L41.9,149.5z
			 M46.3,149.5l1.9-2.1l6,5.2l-1.9,2.1L46.3,149.5z"/>
		<path class="st1" d="M74.9,155.3l-6.5,12.5l-4.2-2.2l-0.2-7.9l0.1-2.1l0,0l-1.2,2.5l-2.8,5.4l-3.4-1.7l6.5-12.5l4.2,2.2l0.2,7.9
			l-0.1,2.1l0,0l1.2-2.5l2.8-5.4L74.9,155.3z"/>
		<path class="st1" d="M83.6,157.6c2.1,0.5,3.6,1.5,4.5,2.9c0.8,1.4,1,3.3,0.5,5.4c-0.5,2.2-1.5,3.7-2.8,4.7
			c-1.4,0.9-3.2,1.2-5.3,0.7l-6.3-1.5l3.2-13.7L83.6,157.6z M80.6,168.1c1,0.2,1.8,0.1,2.3-0.4c0.5-0.5,1-1.4,1.3-2.7s0.3-2.3,0.1-3
			c-0.3-0.7-0.9-1.2-1.9-1.4l-1.5-0.4l-1.7,7.5L80.6,168.1z"/>
		<path class="st1" d="M105.1,169c-0.2,1-0.7,1.9-1.3,2.5c-0.6,0.7-1.3,1.1-2.2,1.4c-0.9,0.3-1.8,0.5-2.8,0.5
			c-1.4,0-2.7-0.3-3.8-0.8c-1.1-0.6-1.9-1.4-2.5-2.5c-0.6-1.1-0.9-2.4-0.9-3.9c0-1.5,0.3-2.8,0.8-3.9c0.6-1.1,1.4-1.9,2.4-2.5
			c1-0.6,2.3-0.9,3.7-0.9c1,0,2,0.1,2.8,0.4s1.6,0.7,2.2,1.3c0.6,0.6,1,1.4,1.2,2.3l-3.7,1.5c-0.2-0.9-0.4-1.5-0.8-1.8
			c-0.4-0.3-0.9-0.4-1.5-0.4c-0.6,0-1.1,0.2-1.5,0.5c-0.4,0.3-0.7,0.7-0.9,1.3s-0.3,1.3-0.3,2.2c0,0.9,0.1,1.6,0.3,2.2
			s0.5,1,0.9,1.3c0.4,0.3,0.9,0.4,1.6,0.4c0.6,0,1.1-0.2,1.5-0.5c0.4-0.3,0.7-0.9,0.8-1.6L105.1,169z"/>
		<path class="st1" d="M113.5,157.1c1.7-0.4,3.1-0.4,4.2,0.2s1.8,1.5,2.2,2.8c0.4,1.4,0.2,2.7-0.5,3.6c-0.7,1-1.9,1.7-3.6,2.1
			l-0.4,0.3l-2.5,0.6l1.2,4.7l-4.1,1l-3.4-13.6L113.5,157.1z M114.4,163.3c0.6-0.1,1-0.4,1.2-0.7s0.3-0.7,0.2-1.2s-0.4-0.9-0.7-1
			c-0.4-0.2-0.8-0.2-1.4,0l-2.2,0.5l0.7,2.9L114.4,163.3z M117.1,163.6l6,5.6l-4.6,1.1l-4.8-5.1L117.1,163.6z"/>
		<path class="st1" d="M126.1,168l-2.3-14.6l4.6-2.4l10.7,10.2l-4,2.1l-6-6.5l-1.6-1.8l0,0l0.5,2.3l1.9,8.6L126.1,168z M127.8,163.9
			l-1.3-2.5l7-3.7l1.3,2.5L127.8,163.9z"/>
		<path class="st1" d="M144.2,143l-5.3,4.5l1.6,1.9l4.2-3.6l2.1,2.5l-4.2,3.6l3.3,3.9l-3.3,2.8l-9.1-10.7l8.6-7.3L144.2,143z"/>
		<path class="st1" d="M151.9,127.4l2.7,1.9l-2.6,3.7l8.8,6.2l-2.5,3.6l-8.8-6.2l-2.6,3.7l-2.7-1.9L151.9,127.4z"/>
	</g>
	<g>
		<path class="st1" d="M52.2,106.1c-3.4,0-6.5-0.7-9.1-2.2c-2.7-1.5-4.8-3.7-6.3-6.7c-1.5-3-2.3-6.6-2.3-11c0-4.2,0.8-7.9,2.4-10.9
			s3.9-5.3,6.9-6.9c3-1.6,6.5-2.4,10.6-2.4c4.6,0,8.3,0.8,11.1,2.5c2.8,1.6,5,4.3,6.5,7.8l-11.2,4.2c-0.4-1.9-1.1-3.3-2.2-4.1
			c-1.1-0.8-2.5-1.2-4.1-1.2c-1.7,0-3.1,0.4-4.2,1.2c-1.1,0.8-2,2-2.5,3.6c-0.5,1.6-0.8,3.6-0.8,6c0,2.6,0.3,4.7,0.9,6.4
			c0.6,1.6,1.5,2.9,2.8,3.6c1.3,0.8,2.8,1.1,4.7,1.1c0.9,0,1.8-0.1,2.6-0.3s1.5-0.5,2.1-1c0.6-0.4,1.1-1,1.4-1.6
			c0.3-0.6,0.5-1.4,0.5-2.3v-0.3H54V84h17.8v21.5h-8.1l-0.9-9.8l1.9,1.9c-0.7,2.7-2.1,4.9-4.2,6.3C58.3,105.3,55.6,106.1,52.2,106.1
			z"/>
		<path class="st1" d="M93.3,106.1c-2.7,0-5.2-0.4-7.3-1.2c-2.1-0.8-3.8-2-5-3.6c-1.2-1.6-1.8-3.6-1.8-6.1c0-1,0.2-2.1,0.5-3.2
			c0.3-1.2,0.9-2.3,1.8-3.4c0.9-1.1,2.1-2,3.6-2.8c1.5-0.8,3.5-1.3,6-1.5l1.6-0.3c1.7-1.1,3-2.1,3.9-2.9c0.9-0.8,1.5-1.6,1.9-2.3
			c0.3-0.7,0.5-1.5,0.5-2.4c0-0.9-0.3-1.6-0.8-2.1c-0.5-0.5-1.2-0.8-2.1-0.8c-0.9,0-1.7,0.3-2.3,0.9c-0.6,0.6-0.9,1.4-0.9,2.5
			c0,0.6,0.1,1.1,0.4,1.7c0.2,0.6,0.7,1.3,1.3,2.1c0.6,0.8,1.5,1.8,2.7,3.1c1.2,1.3,2.7,2.9,4.7,4.9c1.8,1.9,3.4,3.5,4.7,4.8
			c1.3,1.3,2.4,2.3,3.4,3c1,0.7,2,1.2,2.9,1.4c1,0.2,2.1,0.2,3.3,0l-0.8,8.3c-1.8,0-3.3-0.1-4.7-0.4c-1.4-0.2-2.7-0.7-4-1.4
			c-1.3-0.7-2.8-1.8-4.4-3.2c-1.6-1.4-3.6-3.2-6-5.6c-2.9-2.9-5.3-5.2-7.1-7.1c-1.8-1.9-3.2-3.5-4.1-4.8c-0.9-1.3-1.6-2.6-1.9-3.7
			c-0.3-1.1-0.5-2.3-0.5-3.6c0-1.7,0.5-3.3,1.4-4.9c0.9-1.6,2.3-2.9,4.2-3.9c1.9-1,4.3-1.5,7.3-1.5c3,0,5.4,0.5,7.2,1.4
			c1.8,0.9,3.1,2.1,3.9,3.6s1.2,3,1.2,4.6c0,1.9-0.5,3.6-1.4,5.2c-0.9,1.6-2.4,2.9-4.3,4c-1.9,1.1-4.3,1.9-7.2,2.5l-1.8,1.1
			c-1.1,0.7-2,1.4-2.6,2c-0.6,0.6-1,1.2-1.3,1.8c-0.2,0.6-0.4,1.4-0.4,2.2c0,0.8,0.2,1.6,0.7,2.2c0.5,0.6,1.1,1.1,2,1.4
			c0.9,0.3,1.9,0.5,3.1,0.5c1.7,0,3.2-0.3,4.5-0.8c1.3-0.5,2.6-1.2,3.9-1.9l0.9-1.4c0.6-1.1,1.1-2.4,1.6-3.7s0.6-3,0.6-4.9l7.7,0.1
			c-0.1,2.5-0.5,4.8-1.4,6.9c-0.8,2.1-2.1,3.9-3.7,5.3l-2.1,1.5c-1.2,2-3,3.5-5.3,4.7C99.4,105.5,96.6,106.1,93.3,106.1z"/>
		<path class="st1" d="M139.9,106.1c-3.4,0-6.5-0.7-9.1-2.2c-2.7-1.5-4.8-3.7-6.3-6.7c-1.5-3-2.3-6.6-2.3-11c0-4.2,0.8-7.9,2.4-10.9
			c1.6-3,3.9-5.3,6.9-6.9c3-1.6,6.5-2.4,10.6-2.4c4.6,0,8.3,0.8,11.1,2.5c2.8,1.6,5,4.3,6.5,7.8l-11.2,4.2c-0.4-1.9-1.1-3.3-2.2-4.1
			c-1.1-0.8-2.5-1.2-4.1-1.2c-1.7,0-3.1,0.4-4.2,1.2c-1.1,0.8-2,2-2.5,3.6c-0.6,1.6-0.8,3.6-0.8,6c0,2.6,0.3,4.7,0.9,6.4
			c0.6,1.6,1.5,2.9,2.8,3.6c1.3,0.8,2.8,1.1,4.7,1.1c0.9,0,1.8-0.1,2.6-0.3s1.5-0.5,2.1-1c0.6-0.4,1.1-1,1.4-1.6
			c0.3-0.6,0.5-1.4,0.5-2.3v-0.3h-7.7V84h17.8v21.5h-8.1l-0.9-9.8l1.9,1.9c-0.7,2.7-2.1,4.9-4.2,6.3
			C146.1,105.3,143.4,106.1,139.9,106.1z"/>
	</g>
</g>
<circle class="st0" cx="592.1" cy="99.6" r="83"/>
<path id="SVGID_x5F_1_x5F_" style="fill:none;" d="M668,100c0.2-41.9-33.5-76-75.4-76.3c-41.9-0.2-76,33.5-76.3,75.4
	c-0.2,41.9,33.5,76,75.4,76.3C633.6,175.6,667.7,141.9,668,100z"/>
<text><textPath  xlink:href="#SVGID_x5F_1_x5F_" startOffset="6343.6621%">
<tspan  class="st1" style="font-family:'WorkSans-ExtraBold'; font-size:21.2605px; letter-spacing:50;">HANDCRAFT</tspan></textPath>
</text>
<text transform="matrix(1 0 0 1 526.9971 107.6002)"><tspan x="0" y="0" class="st1" style="font-family:'WorkSans-ExtraBold'; font-size:58.8717px;">G</tspan><tspan x="42.5" y="0" class="st1" style="font-family:'WorkSans-ExtraBold'; font-size:58.8717px; letter-spacing:-12;"> </tspan><tspan x="45.9" y="0" class="st1" style="font-family:'WorkSans-ExtraBold'; font-size:58.8717px;">&amp;</tspan><tspan x="84.4" y="0" class="st1" style="font-family:'WorkSans-ExtraBold'; font-size:58.8717px; letter-spacing:-12;"> </tspan><tspan x="87.8" y="0" class="st1" style="font-family:'WorkSans-ExtraBold'; font-size:58.8717px;">G</tspan></text>
</svg>
